# xmcd
#
# Track frame offsets:
#	150
#	54160
#	92428
#	125823
#	180952
#	217948
#	261172
#
# Disc length: 3820 seconds
#
# Revision: 1
# Processed by: cddbd v1.5.2PL0 Copyright (c) Steve Scherf et al.
# Submitted via: audiograbber 1.83.01
#
DISCID=540eea07
DTITLE=Grateful Dead - 73-12-19A Curtis Hixon Convention Hall, Tampa FL
DYEAR=1900
DGENRE=
TTITLE0=He's Gone
TTITLE1=Truckin'
TTITLE2=Nobody's Fault But Mine > Jam
TTITLE3=Phil's Stomp > The Other One Jam
TTITLE4=The Other One
TTITLE5=Stella Blue
TTITLE6=Around and Around
EXTD=
EXTT0=
EXTT1=
EXTT2=
EXTT3=
EXTT4=
EXTT5=
EXTT6=
PLAYORDER=
